<svg width="29" height="47" viewBox="0 0 29 47" fill="none" xmlns="http://www.w3.org/2000/svg">
<path d="M11.6347 0V5.78842H7.29341C3.35729 5.78842 0.0578842 9.08782 0.0578842 13.024V15.9182C0.0578842 19.8543 2.60479 23.0958 6.36727 24.0798L21.1856 27.9002C21.996 28.1317 23.1537 29.5788 23.1537 30.4471V33.3413C23.1537 34.1517 22.517 34.7884 21.7066 34.7884H7.23553C6.54092 34.7884 6.01996 34.5569 5.78842 34.4411V29H0V34.7884C0 36.7565 1.15768 38.4351 2.54691 39.3034C3.87824 40.2295 5.55689 40.5768 7.23553 40.5768H11.5768V46.3653H17.3653V40.5768H21.7066C25.7006 40.5768 28.9421 37.3353 28.9421 33.3413V30.4471C28.9421 26.511 26.3952 23.2695 22.6327 22.2854L7.81437 18.4651C7.00399 18.2335 5.84631 16.7864 5.84631 15.9182V13.024C5.84631 12.2136 6.48303 11.5768 7.29341 11.5768H21.7645C22.4012 11.5768 22.98 11.8084 23.2116 11.9242V17.3653H29V11.5768C29 9.60878 27.8423 7.93014 26.4531 7.06188C25.1218 6.13573 23.4431 5.78842 21.7645 5.78842H17.4232V0L11.6347 0Z" fill="white"/>
</svg>
